{"title":"PornPros Mini Pack 720p Mazinger Z33 XXX","uid":7007705,"size":9857553997,"categoryP":"porn","categoryS":"hd___movies","magnet":"?xt=urn:btih:aed95e8938481a3f10dce0259078aa216e4bd17c&amp;dn=PornPros+Mini+Pack+720p+Mazinger+Z33+XXX&amp;tr=udp%3A%2F%2Ftracker.openbittorrent.com%3A80&amp;tr=udp%3A%2F%2Fopen.demonii.com%3A1337&amp;tr=udp%3A%2F%2Ftracker.coppersurfer.tk%3A6969&amp;tr=udp%3A%2F%2Fexodus.desync.com%3A6969","seeders":0,"leechers":1,"uploader":"HDvideos","files":-1,"time":1328331625,"description":"mastitorrents.com\n &lt;a href=&quot;\nhttp://mastitorrents.com/forums/index.php&quot; rel=&quot;nofollow&quot; target=&quot;_NEW&quot;&gt;\nhttp://mastitorrents.com/forums/index.php&lt;/a&gt;\n &lt;a href=&quot;\nhttp://thepiratebay.se/user/HDvideos/0/7&quot; rel=&quot;nofollow&quot; target=&quot;_NEW&quot;&gt;\nhttp://thepiratebay.se/user/HDvideos/0/7&lt;/a&gt;\n\nPornPros Mini Pack 720p Mazinger Z33 XXX@Mastitorrents\n\nFormat                           : Windows Media\nFile size                        : 374 MiB\nDuration                         : 21mn 6s\nOverall bit rate mode            : Constant\nOverall bit rate                 : 2 479 Kbps\nMaximum Overall bit rate         : 2 651 Kbps\nEncoded date                     : UTC 2011-11-29 08:28:32.646\n\nVideo\nID                               : 2\nFormat                           : VC-1\nFormat profile                   : MP@HL\nCodec ID                         : WMV3\nCodec ID/Info                    : Windows Media Video 9\nCodec ID/Hint                    : WMV3\nDescription of the codec         : Windows Media Video 9 - Professional\nDuration                         : 21mn 6s\nBit rate mode                    : Constant\nBit rate                         : 2 500 Kbps\nWidth                            : 1 280 pixels\nHeight                           : 720 pixels\nDisplay aspect ratio             : 16:9\nFrame rate                       : 23.976 fps\nNominal frame rate               : 29.970 fps\nBit depth                        : 8 bits\nScan type                        : Progressive\nCompression mode                 : Lossy\nBits/(Pixel*Frame)               : 0.113\nStream size                      : 377 MiB\n\nAudio\nID                               : 1\nFormat                           : WMA\nFormat version                   : Version 2\nCodec ID                         : 161\nCodec ID/Info                    : Windows Media Audio\nDescription of the codec         : Windows Media Audio 9.2 - 128 kbps, 44 kHz, stereo 2-pass CBR\nDuration                         : 21mn 6s\nBit rate mode                    : Constant\nBit rate                         : 128 Kbps\nChannel(s)                       : 2 channels\nSampling rate                    : 44.1 KHz\nBit depth                        : 16 bits\nStream size                      : 19.3 MiB (5%)","torrent":{"xt":"urn:btih:aed95e8938481a3f10dce0259078aa216e4bd17c","amp;dn":"PornPros+Mini+Pack+720p+Mazinger+Z33+XXX","amp;tr":["udp%3A%2F%2Ftracker.openbittorrent.com%3A80","udp%3A%2F%2Fopen.demonii.com%3A1337","udp%3A%2F%2Ftracker.coppersurfer.tk%3A6969","udp%3A%2F%2Fexodus.desync.com%3A6969"],"infoHash":"aed95e8938481a3f10dce0259078aa216e4bd17c","infoHashBuffer":{"type":"Buffer","data":[174,217,94,137,56,72,26,63,16,220,224,37,144,120,170,33,110,75,209,124]},"announce":[],"urlList":[]}}